<?xml version="1.0" encoding="UTF-8" standalone="no"?>
<svg
   xmlns:dc="http://purl.org/dc/elements/1.1/"
   xmlns:cc="http://creativecommons.org/ns#"
   xmlns:rdf="http://www.w3.org/1999/02/22-rdf-syntax-ns#"
   xmlns:svg="http://www.w3.org/2000/svg"
   xmlns="http://www.w3.org/2000/svg"
   xmlns:sodipodi="http://sodipodi.sourceforge.net/DTD/sodipodi-0.dtd"
   xmlns:inkscape="http://www.inkscape.org/namespaces/inkscape"
   sodipodi:docname="shelfButtonIcons.svg"
   inkscape:version="1.0 (4035a4fb49, 2020-05-01)"
   id="svg8"
   version="1.1"
   viewBox="0 0 8.4666667 8.4666667"
   height="32"
   width="32">
  <defs
     id="defs2">
    <clipPath
       clipPathUnits="userSpaceOnUse"
       id="clipPath203">
      <path
         d="M 0,32 H 32 V 0 H 0 Z"
         id="path201" />
    </clipPath>
    <clipPath
       clipPathUnits="userSpaceOnUse"
       id="clipPath219">
      <path
         d="M 0,32 H 32 V 0 H 0 Z"
         id="path217" />
    </clipPath>
    <clipPath
       clipPathUnits="userSpaceOnUse"
       id="clipPath231">
      <path
         d="M 0,32 H 32 V 0 H 0 Z"
         id="path229" />
    </clipPath>
    <clipPath
       clipPathUnits="userSpaceOnUse"
       id="clipPath255">
      <path
         d="M 0,32 H 32 V 0 H 0 Z"
         id="path253" />
    </clipPath>
  </defs>
  <sodipodi:namedview
     inkscape:bbox-paths="true"
     inkscape:bbox-nodes="true"
     inkscape:snap-bbox-edge-midpoints="true"
     inkscape:snap-bbox-midpoints="true"
     inkscape:snap-bbox="true"
     inkscape:guide-bbox="true"
     showguides="true"
     inkscape:snap-page="true"
     inkscape:window-maximized="1"
     inkscape:window-y="27"
     inkscape:window-x="0"
     inkscape:window-height="1019"
     inkscape:window-width="1920"
     inkscape:showpageshadow="false"
     units="px"
     showgrid="false"
     inkscape:document-rotation="0"
     inkscape:current-layer="svg8"
     inkscape:document-units="mm"
     inkscape:cy="20.396947"
     inkscape:cx="18.768448"
     inkscape:zoom="12.28125"
     inkscape:pageshadow="2"
     inkscape:pageopacity="0.0"
     borderopacity="1.0"
     bordercolor="#666666"
     pagecolor="#ffffff"
     id="base">
    <sodipodi:guide
       id="guide330"
       orientation="1,0"
       position="0,7.2602206" />
    <sodipodi:guide
       id="guide332"
       orientation="0,-1"
       position="4.7396099,8.4666667" />
    <sodipodi:guide
       id="guide334"
       orientation="1,0"
       position="8.4666667,6.8078033" />
    <sodipodi:guide
       id="guide1162"
       orientation="0,-1"
       position="7.6695505,0" />
    <sodipodi:guide
       id="guide1166"
       orientation="1,0"
       position="0.52916668,5.3589954" />
    <sodipodi:guide
       id="guide1168"
       orientation="0,-1"
       position="6.8094563,7.9375" />
    <sodipodi:guide
       id="guide1170"
       orientation="1,0"
       position="7.9375,7.5983468" />
    <sodipodi:guide
       id="guide1172"
       orientation="0,-1"
       position="3.5189808,0.52916668" />
    <sodipodi:guide
       id="guide1221"
       orientation="-0,1"
       inkscape:label=""
       inkscape:color="rgb(167,0,255)"
       position="5.81927,0.529167" />
    <sodipodi:guide
       inkscape:locked="false"
       id="guide1225"
       orientation="0,1"
       inkscape:label=""
       inkscape:color="rgb(167,0,255)"
       position="5.81927,3.7036667" />
  </sodipodi:namedview>
  <metadata
     id="metadata5">
    <rdf:RDF>
      <cc:Work
         rdf:about="">
        <dc:format>image/svg+xml</dc:format>
        <dc:type
           rdf:resource="http://purl.org/dc/dcmitype/StillImage" />
        <dc:title></dc:title>
      </cc:Work>
    </rdf:RDF>
  </metadata>
  <g
     transform="matrix(0.75001608,0,0,0.75001608,1.0582653,1.0555027)"
     style="display:inline"
     id="layer1"
     inkscape:label="Hammer">
    <g
       transform="matrix(0.35277777,0,0,-0.35277777,-1.4110757,9.8815066)"
       id="g197"
       style="display:inline">
      <g
         clip-path="url(#clipPath203)"
         id="g199">
        <g
           transform="translate(29.8226,5.9184)"
           id="g205">
          <path
             id="path207"
             style="fill:#bdbdbd;fill-opacity:1;fill-rule:nonzero;stroke:none"
             d="m 0,0 -18.083,17.5 c -0.229,0.22 -0.592,0.217 -0.817,-0.007 l -1.75,-1.75 c -0.224,-0.225 -0.227,-0.588 -0.007,-0.817 l 17.5,-18.083 c 0.11,-0.113 0.261,-0.177 0.419,-0.177 1.61,0 2.915,1.305 2.915,2.915 C 0.177,-0.261 0.113,-0.11 0,0" />
        </g>
        <g
           transform="translate(17.7502,29.4158)"
           id="g209">
          <path
             id="path211"
             style="fill:#5285a6;fill-opacity:1;fill-rule:nonzero;stroke:none"
             d="m 0,0 c -3.892,0.011 -7.626,-1.536 -10.37,-4.296 l -1.709,-1.708 c -0.11,-0.109 -0.171,-0.258 -0.171,-0.413 0,-0.966 -0.783,-1.75 -1.75,-1.75 -0.155,10e-4 -0.303,-0.06 -0.413,-0.17 l -1.166,-1.166 c -0.228,-0.228 -0.228,-0.597 0,-0.825 l 2.333,-2.334 c 0.228,-0.227 0.597,-0.227 0.825,0 l 1.166,1.167 c 0.11,0.109 0.172,0.257 0.172,0.412 0,0.966 0.783,1.75 1.75,1.75 0.155,0 0.303,0.061 0.413,0.17 l 2.853,2.863 c 1.952,1.951 4.09,3.704 6.385,5.235 0.267,0.181 0.335,0.544 0.154,0.81 C 0.365,-0.098 0.189,-0.003 0,0" />
        </g>
      </g>
    </g>
  </g>
  <g
     style="display:inline"
     inkscape:label="Tool"
     id="layer5">
    <g
       transform="matrix(0.27613091,0,0,-0.27613091,-0.18472717,8.6551961)"
       id="g213"
       style="display:inline">
      <g
         clip-path="url(#clipPath219)"
         id="g215">
        <g
           transform="translate(11.6355,8.7971)"
           id="g221">
          <path
             id="path223"
             style="fill:#5285a6;fill-opacity:1;fill-rule:nonzero;stroke:none"
             d="m 0,0 10.565,10.565 c 2.664,-1.101 5.717,0.166 6.818,2.83 0.468,1.132 0.523,2.392 0.156,3.559 l -3.271,-3.271 -3.423,3.423 3.271,3.271 C 11.366,21.242 8.435,19.712 7.571,16.962 7.204,15.794 7.259,14.534 7.727,13.403 L -2.838,2.838 C -5.261,3.698 -7.922,2.43 -8.782,0.007 -9.12,-0.945 -9.139,-1.981 -8.836,-2.945 l 2.919,2.92 3.054,-3.054 -2.919,-2.92 c 2.453,-0.77 5.066,0.594 5.836,3.047 C 0.357,-1.988 0.338,-0.952 0,0" />
        </g>
      </g>
    </g>
  </g>
  <g
     style="display:inline"
     inkscape:label="Python Mini"
     id="layer4">
    <g
       transform="matrix(0.26460626,0,0,-0.26460626,-4.7264532e-4,8.3085907)"
       id="g249"
       style="display:inline">
      <g
         clip-path="url(#clipPath255)"
         id="g251">
        <g
           transform="translate(21.6563,24.8375)"
           id="g257">
          <path
             id="path259"
             style="fill:#bdbdbd;fill-opacity:1;fill-rule:nonzero;stroke:none"
             d="M 0,0 H -2.844 V -2.813 H -9.719 V -6.25 c 0,-0.345 0.28,-0.625 0.625,-0.625 v -2.219 c 0,-1.294 1.05,-2.344 2.344,-2.344 h 2.188 c 1.294,0 2.343,1.05 2.343,2.344 v 1.282 h -2.799 c -0.252,0 -0.47,0.193 -0.482,0.446 -0.012,0.269 0.202,0.491 0.469,0.491 H 0 c 1.294,0 2.344,1.049 2.344,2.344 v 2.187 C 2.344,-1.049 1.294,0 0,0" />
        </g>
        <g
           transform="translate(13.8125,21.4)"
           id="g261">
          <path
             id="path263"
             style="fill:#5285a6;fill-opacity:1;fill-rule:nonzero;stroke:none"
             d="m 0,0 h 4.375 c 0.69,0 1.25,0.56 1.25,1.25 V 5.656 C 5.625,6.949 4.574,8 3.281,8 H 1.094 C -0.199,8 -1.25,6.949 -1.25,5.656 V 4.375 h 2.812 c 0.259,0 0.469,-0.21 0.469,-0.469 0,-0.259 -0.21,-0.468 -0.469,-0.468 h -5.031 c -1.292,0 -2.343,-1.052 -2.343,-2.344 v -2.188 c 0,-1.292 1.051,-2.344 2.343,-2.344 H -1.25 V -1.25 C -1.25,-0.56 -0.69,0 0,0" />
        </g>
        <g
           transform="translate(15.375,27.4937)"
           id="g265">
          <path
             id="path267"
             style="fill:#323232;fill-opacity:1;fill-rule:nonzero;stroke:none"
             d="m 0,0 c 0,-0.259 -0.21,-0.469 -0.469,-0.469 -0.259,0 -0.468,0.21 -0.468,0.469 0,0.259 0.209,0.469 0.468,0.469 C -0.21,0.469 0,0.259 0,0" />
        </g>
        <g
           transform="translate(17.5625,15.3062)"
           id="g269">
          <path
             id="path271"
             style="fill:#323232;fill-opacity:1;fill-rule:nonzero;stroke:none"
             d="m 0,0 c 0,-0.259 -0.21,-0.469 -0.469,-0.469 -0.259,0 -0.468,0.21 -0.468,0.469 0,0.259 0.209,0.469 0.468,0.469 C -0.21,0.469 0,0.259 0,0" />
        </g>
      </g>
    </g>
  </g>
  <g
     style="display:inline"
     transform="matrix(0.78385119,0,0,0.78385119,0.91511292,0.92384553)"
     inkscape:label="Python"
     id="layer3">
    <g
       transform="matrix(0.35277777,0,0,-0.35277777,-1.4110757,9.8815066)"
       id="g225"
       style="display:inline">
      <g
         clip-path="url(#clipPath231)"
         id="g227">
        <g
           transform="translate(25.471,21.7979)"
           id="g233">
          <path
             id="path235"
             style="fill:#bdbdbd;fill-opacity:1;fill-rule:nonzero;stroke:none"
             d="m 0,0 h -4.762 v -4.709 h -11.511 v -5.756 c 0,-0.578 0.468,-1.047 1.046,-1.047 v -3.715 c 0,-2.167 1.757,-3.924 3.925,-3.924 h 3.662 c 2.168,0 3.925,1.757 3.925,3.924 v 2.145 h -4.687 c -0.423,0 -0.787,0.325 -0.807,0.747 -0.021,0.451 0.338,0.823 0.784,0.823 H 0 c 2.167,0 3.924,1.757 3.924,3.925 v 3.663 C 3.924,-1.757 2.167,0 0,0" />
        </g>
        <g
           transform="translate(12.3372,16.042)"
           id="g237">
          <path
             id="path239"
             style="fill:#5285a6;fill-opacity:1;fill-rule:nonzero;stroke:none"
             d="m 0,0 h 7.326 c 1.156,0 2.093,0.937 2.093,2.093 v 7.378 c 0,2.164 -1.761,3.925 -3.925,3.925 H 1.831 c -2.164,0 -3.924,-1.761 -3.924,-3.925 V 7.326 H 2.616 C 3.05,7.326 3.401,6.974 3.401,6.541 3.401,6.107 3.05,5.756 2.616,5.756 h -8.424 c -2.164,0 -3.925,-1.761 -3.925,-3.925 v -3.662 c 0,-2.164 1.761,-3.925 3.925,-3.925 h 3.715 v 3.663 C -2.093,-0.937 -1.156,0 0,0" />
        </g>
        <g
           transform="translate(14.9535,26.2456)"
           id="g241">
          <path
             id="path243"
             style="fill:#323232;fill-opacity:1;fill-rule:nonzero;stroke:none"
             d="m 0,0 c 0,-0.434 -0.351,-0.785 -0.785,-0.785 -0.433,0 -0.785,0.351 -0.785,0.785 0,0.434 0.352,0.785 0.785,0.785 C -0.351,0.785 0,0.434 0,0" />
        </g>
        <g
           transform="translate(18.6163,5.8384)"
           id="g245">
          <path
             id="path247"
             style="fill:#323232;fill-opacity:1;fill-rule:nonzero;stroke:none"
             d="m 0,0 c 0,-0.434 -0.351,-0.785 -0.785,-0.785 -0.433,0 -0.785,0.351 -0.785,0.785 0,0.434 0.352,0.785 0.785,0.785 C -0.351,0.785 0,0.434 0,0" />
        </g>
      </g>
    </g>
  </g>
</svg>
