<?xml version="1.0" encoding="UTF-8" standalone="no"?>
<svg
   xmlns:dc="http://purl.org/dc/elements/1.1/"
   xmlns:cc="http://creativecommons.org/ns#"
   xmlns:rdf="http://www.w3.org/1999/02/22-rdf-syntax-ns#"
   xmlns:svg="http://www.w3.org/2000/svg"
   xmlns="http://www.w3.org/2000/svg"
   id="svg8"
   version="1.1"
   viewBox="0 0 4.2333333 4.2333333"
   height="16"
   width="16">
  <defs
     id="defs2">
    <clipPath
       clipPathUnits="userSpaceOnUse"
       id="clipPath209">
      <path
         d="M 0,16 H 16 V 0 H 0 Z"
         id="path207" />
    </clipPath>
    <clipPath
       clipPathUnits="userSpaceOnUse"
       id="clipPath225">
      <path
         d="M 0,16 H 16 V 0 H 0 Z"
         id="path223" />
    </clipPath>
    <clipPath
       clipPathUnits="userSpaceOnUse"
       id="clipPath237">
      <path
         d="M 0,16 H 16 V 0 H 0 Z"
         id="path235" />
    </clipPath>
  </defs>
  <metadata
     id="metadata5">
    <rdf:RDF>
      <cc:Work
         rdf:about="">
        <dc:format>image/svg+xml</dc:format>
        <dc:type
           rdf:resource="http://purl.org/dc/dcmitype/StillImage" />
        <dc:title></dc:title>
      </cc:Work>
    </rdf:RDF>
  </metadata>
  <g
     style="display:none"
     transform="matrix(0.8671849,0,0,0.8671849,-4.8131908,-2.502956)"
     id="layer7">
    <path
       id="path1385"
       d="M 6.3144531,3.1914062 5.8554688,3.6503906 7.53125,5.328125 5.8554688,7.0039062 6.3144531,7.4628906 7.9921875,5.7851562 9.6679688,7.4628906 10.126953,7.0039062 8.4492188,5.328125 10.126953,3.6503906 9.6679688,3.1914062 7.9921875,4.8671875 Z"
       style="color:#000000;font-style:normal;font-variant:normal;font-weight:normal;font-stretch:normal;font-size:medium;line-height:normal;font-family:sans-serif;font-variant-ligatures:normal;font-variant-position:normal;font-variant-caps:normal;font-variant-numeric:normal;font-variant-alternates:normal;font-variant-east-asian:normal;font-feature-settings:normal;font-variation-settings:normal;text-indent:0;text-align:start;text-decoration:none;text-decoration-line:none;text-decoration-style:solid;text-decoration-color:#000000;letter-spacing:normal;word-spacing:normal;text-transform:none;writing-mode:lr-tb;direction:ltr;text-orientation:mixed;dominant-baseline:auto;baseline-shift:baseline;text-anchor:start;white-space:normal;shape-padding:0;shape-margin:0;inline-size:0;clip-rule:nonzero;display:inline;overflow:visible;visibility:visible;opacity:1;isolation:auto;mix-blend-mode:normal;color-interpolation:sRGB;color-interpolation-filters:linearRGB;solid-color:#000000;solid-opacity:1;vector-effect:none;fill:#bdbdbd;fill-opacity:1;fill-rule:nonzero;stroke:none;stroke-width:0.648425;stroke-linecap:butt;stroke-linejoin:round;stroke-miterlimit:10;stroke-dasharray:none;stroke-dashoffset:0;stroke-opacity:1;color-rendering:auto;image-rendering:auto;shape-rendering:auto;text-rendering:auto;enable-background:accumulate;stop-color:#000000;stop-opacity:1" />
  </g>
  <g
     style="display:none"
     transform="matrix(0.28257645,-0.03062801,0.03062801,0.28257645,0.04038206,0.29828767)"
     id="layer6">
    <path
       d="m 4.6433796,6.9992927 c 0.2355252,0.2887782 0.5676425,0.4699275 0.935677,0.5080141 L 5.4360775,8.8889283 C 4.7000085,8.8127551 4.035465,8.4534405 3.5644145,7.8758841 2.6282817,6.7213889 2.8161412,4.9060834 3.96875,3.96875 L 4.846542,5.0458286 C 4.2689855,5.5168791 4.1762049,6.4231427 4.6433796,6.9992927 M 1.5743107,5.6952456 C 1.3375562,7.9830278 3.005131,10.035586 5.2929132,10.27234 7.5797007,10.508992 9.6322587,8.8414171 9.8690132,6.5536349 10.105768,4.2658527 8.4381929,2.2132946 6.1514054,1.9766431 3.8636232,1.7398887 1.8110652,3.4074634 1.5743107,5.6952456 M 11.251629,6.6967169 C 11.119562,7.9729015 10.559542,9.1002435 9.7345668,9.9608951 L 12.458867,13.314138 11.379902,14.19073 8.6556018,10.837487 C 7.6442508,11.468735 6.425124,11.785927 5.149934,11.653962 2.1002209,11.338358 -0.12380647,8.600882 0.19169453,5.5521635 0.50719563,2.5034451 3.2446714,0.2794176 6.2943845,0.5950216 9.3431029,0.9105227 11.56713,3.6479985 11.251629,6.6967169"
       style="fill:#bdbdbd;fill-opacity:1;fill-rule:nonzero;stroke:none"
       id="path245" />
  </g>
  <g
     style="display:inline"
     transform="translate(-2.1166667,-2.1166667)"
     id="layer4">
    <path
       id="path247"
       style="display:inline;fill:#bdbdbd;fill-opacity:1;fill-rule:nonzero;stroke:none;stroke-width:0.284936"
       d="m 3.3072917,5.159375 h 2.778125 v 0.4630209 h -2.778125 z m 0,-1.1576946 h 2.778125 V 4.4647013 H 3.3072917 Z M 6.0854167,3.3072917 V 2.8442708 h -0.2778125 -2.2225 -0.2723987 v 0.4630209 h 0.2723987 2.2225 z M 2.3812501,5.159375 H 2.8442708 V 5.6223959 H 2.3812501 Z m 0,-1.1576946 H 2.8442708 V 4.4647013 H 2.3812501 Z m 0,-1.1574096 H 2.8442708 V 3.3072917 H 2.3812501 Z" />
  </g>
  <g
     style="display:none"
     transform="translate(-2.1166667,-2.1166667)"
     id="layer3">
    <path
       id="path271"
       style="display:inline;fill:#bdbdbd;fill-opacity:1;fill-rule:nonzero;stroke:none;stroke-width:0.284936"
       d="M 5.3730769,4.9100561 H 6.0854167 V 5.6223959 H 5.3730769 Z m 0,-1.0328927 H 6.0854167 V 4.5895033 H 5.3730769 Z m 0,-1.0328926 H 6.0854167 V 3.5566105 H 5.3730769 Z M 4.3758013,4.9100561 H 5.0881411 V 5.6223959 H 4.3758013 Z m 0,-1.0328927 H 5.0881411 V 4.5895033 H 4.3758013 Z m 0,-1.0328926 H 5.0881411 V 3.5566105 H 4.3758013 Z M 3.3785256,4.9100561 H 4.0908654 V 5.6223959 H 3.3785256 Z m 0,-1.0328927 H 4.0908654 V 4.5895033 H 3.3785256 Z m 0,-1.0328926 H 4.0908654 V 3.5566105 H 3.3785256 Z M 2.3812501,4.9100561 H 3.0935898 V 5.6223959 H 2.3812501 Z m 0,-1.0328927 H 3.0935898 V 4.5895033 H 2.3812501 Z m 0,-1.0328926 H 3.0935898 V 3.5566105 H 2.3812501 Z" />
  </g>
  <g
     style="display:none"
     id="layer2">
    <path
       id="path197"
       style="display:inline;fill:#bdbdbd;fill-opacity:1;fill-rule:nonzero;stroke:none;stroke-width:0.284936"
       d="M 0.26458337,3.0427083 H 3.96875 V 3.5057292 H 0.26458337 Z m 0,-1.1576946 H 3.96875 V 2.3480346 H 0.26458337 Z m 0,-1.15740958 H 3.96875 V 1.190625 H 0.26458337 Z" />
  </g>
</svg>
