<?xml version="1.0" encoding="UTF-8" standalone="no"?>
<svg
   xmlns:dc="http://purl.org/dc/elements/1.1/"
   xmlns:cc="http://creativecommons.org/ns#"
   xmlns:rdf="http://www.w3.org/1999/02/22-rdf-syntax-ns#"
   xmlns:svg="http://www.w3.org/2000/svg"
   xmlns="http://www.w3.org/2000/svg"
   width="32"
   height="32"
   viewBox="0 0 8.4666668 8.4666666"
   version="1.1"
   id="svg8">
  <defs
     id="defs2">
    <clipPath
       id="clipPath203"
       clipPathUnits="userSpaceOnUse">
      <path
         id="path201"
         d="M 0,32 H 32 V 0 H 0 Z" />
    </clipPath>
    <clipPath
       id="clipPath239"
       clipPathUnits="userSpaceOnUse">
      <path
         id="path237"
         d="M 0,32 H 32 V 0 H 0 Z" />
    </clipPath>
    <clipPath
       id="clipPath275"
       clipPathUnits="userSpaceOnUse">
      <path
         id="path273"
         d="M 0,32 H 32 V 0 H 0 Z" />
    </clipPath>
    <clipPath
       id="clipPath291"
       clipPathUnits="userSpaceOnUse">
      <path
         id="path289"
         d="M 0,32 H 32 V 0 H 0 Z" />
    </clipPath>
    <clipPath
       id="clipPath307"
       clipPathUnits="userSpaceOnUse">
      <path
         id="path305"
         d="M 0,32 H 32 V 0 H 0 Z" />
    </clipPath>
  </defs>
  <metadata
     id="metadata5">
    <rdf:RDF>
      <cc:Work
         rdf:about="">
        <dc:format>image/svg+xml</dc:format>
        <dc:type
           rdf:resource="http://purl.org/dc/dcmitype/StillImage" />
        <dc:title></dc:title>
      </cc:Work>
    </rdf:RDF>
  </metadata>
  <g
     id="layer1"
     style="display:none"
     transform="matrix(0.78228577,0,0,0.78228577,-106.86137,-100.39763)">
    <g
       id="g197"
       transform="matrix(0.35277777,0,0,-0.35277777,136.36845,139.43964)">
      <g
         id="g199"
         clip-path="url(#clipPath203)">
        <g
           id="g205"
           transform="translate(6.7698,17.319)">
          <path
             d="m 0,0 v -8.972 c 0,-0.924 0.868,-1.365 0.868,-1.365 0,0 6.829,-3.849 7.055,-3.965 0.226,-0.117 0.433,-0.2 0.922,-0.2 h 0.762 c 0.5,0 0.69,0.068 0.923,0.2 0.233,0.131 7.054,3.964 7.054,3.964 0,0 0.848,0.482 0.868,1.366 0.019,0.884 0,8.972 0,8.972 0,0 0,0.61 -0.609,0.552 C 17.195,0.491 13.717,-0.347 9.226,-0.347 4.734,-0.347 1.403,0.418 0.83,0.528 0.363,0.618 0,0.447 0,0"
             style="fill:#bdbdbd;fill-opacity:1;fill-rule:nonzero;stroke:none"
             id="path207" />
        </g>
        <g
           id="g209"
           transform="translate(6.7698,17.319)">
          <path
             d="m 0,0 v -8.972 c 0,-0.924 0.868,-1.365 0.868,-1.365 0,0 6.829,-3.849 7.055,-3.965 0.226,-0.117 0.433,-0.2 0.922,-0.2 h 0.762 c 0.5,0 0.69,0.068 0.923,0.2 0.233,0.131 7.054,3.964 7.054,3.964 0,0 0.848,0.482 0.868,1.366 0.019,0.884 0,8.972 0,8.972 0,0 0,0.61 -0.609,0.552 C 17.195,0.491 13.717,-0.347 9.226,-0.347 4.734,-0.347 1.403,0.418 0.83,0.528 0.363,0.618 0,0.447 0,0 Z"
             style="fill:none;stroke:#000000;stroke-width:0.25;stroke-linecap:butt;stroke-linejoin:miter;stroke-miterlimit:10;stroke-dasharray:none;stroke-opacity:1"
             id="path211" />
        </g>
        <g
           id="g213"
           transform="translate(8.9101,15.678)">
          <path
             d="M 0,0 V -0.495"
             style="fill:none;stroke:#000000;stroke-width:0.5;stroke-linecap:round;stroke-linejoin:round;stroke-miterlimit:4;stroke-dasharray:none;stroke-opacity:1"
             id="path215" />
        </g>
        <g
           id="g217"
           transform="translate(8.9101,14.1543)">
          <path
             d="m 0,0 v -5.368 c 0,-0.709 0.666,-1.049 0.666,-1.049 0,0 5.246,-2.955 5.42,-3.045 0.173,-0.09 0.333,-0.154 0.708,-0.154 H 7.38 c 0.384,0 0.529,0.053 0.708,0.154 0.179,0.1 5.419,3.045 5.419,3.045 0,0 0.651,0.37 0.666,1.049 0.011,0.506 0.006,4.083 0.002,5.875"
             style="fill:none;stroke:#000000;stroke-width:0.5;stroke-linecap:round;stroke-linejoin:round;stroke-miterlimit:4;stroke-dasharray:1.03, 1.03;stroke-dashoffset:0;stroke-opacity:1"
             id="path219" />
        </g>
        <g
           id="g221"
           transform="translate(23.0846,15.1807)">
          <path
             d="M 0,0 C -0.001,0.311 -0.001,0.497 -0.001,0.497"
             style="fill:none;stroke:#000000;stroke-width:0.5;stroke-linecap:round;stroke-linejoin:round;stroke-miterlimit:4;stroke-dasharray:none;stroke-opacity:1"
             id="path223" />
        </g>
        <g
           id="g225"
           transform="translate(21.3555,19.6875)">
          <path
             d="m 0,0 h -2 v 3.875 h -3.875 v 2 H -2 V 9.75 H 0 V 5.875 h 3.875 v -2 H 0 Z"
             style="fill:#d2d2d2;fill-opacity:1;fill-rule:nonzero;stroke:none"
             id="path227" />
        </g>
        <g
           id="g229"
           transform="translate(21.3555,19.6875)">
          <path
             d="m 0,0 h -2 v 3.875 h -3.875 v 2 H -2 V 9.75 H 0 V 5.875 h 3.875 v -2 H 0 Z"
             style="fill:none;stroke:#000000;stroke-width:0.25;stroke-linecap:butt;stroke-linejoin:miter;stroke-miterlimit:10;stroke-dasharray:none;stroke-opacity:1"
             id="path231" />
        </g>
      </g>
    </g>
  </g>
  <g
     id="layer5"
     transform="matrix(0.78270158,0,0,0.78270158,0.91989662,0.91989663)"
     style="display:none">
    <g
       id="g233"
       transform="matrix(0.35277777,0,0,-0.35277777,-1.4111456,9.9201507)">
      <g
         id="g235"
         clip-path="url(#clipPath239)">
        <g
           id="g241"
           transform="translate(6.7698,17.319)">
          <path
             d="m 0,0 v -8.972 c 0,-0.924 0.868,-1.365 0.868,-1.365 0,0 6.829,-3.849 7.055,-3.965 0.226,-0.117 0.433,-0.2 0.922,-0.2 h 0.762 c 0.5,0 0.69,0.068 0.923,0.2 0.233,0.131 7.054,3.964 7.054,3.964 0,0 0.848,0.482 0.868,1.366 0.019,0.884 0,8.972 0,8.972 0,0 0,0.61 -0.609,0.552 C 17.195,0.491 13.717,-0.347 9.226,-0.347 4.734,-0.347 1.403,0.418 0.83,0.528 0.363,0.618 0,0.447 0,0"
             style="fill:#bdbdbd;fill-opacity:1;fill-rule:nonzero;stroke:none"
             id="path243" />
        </g>
        <g
           id="g245"
           transform="translate(6.7698,17.319)">
          <path
             d="m 0,0 v -8.972 c 0,-0.924 0.868,-1.365 0.868,-1.365 0,0 6.829,-3.849 7.055,-3.965 0.226,-0.117 0.433,-0.2 0.922,-0.2 h 0.762 c 0.5,0 0.69,0.068 0.923,0.2 0.233,0.131 7.054,3.964 7.054,3.964 0,0 0.848,0.482 0.868,1.366 0.019,0.884 0,8.972 0,8.972 0,0 0,0.61 -0.609,0.552 C 17.195,0.491 13.717,-0.347 9.226,-0.347 4.734,-0.347 1.403,0.418 0.83,0.528 0.363,0.618 0,0.447 0,0 Z"
             style="fill:none;stroke:#000000;stroke-width:0.25;stroke-linecap:butt;stroke-linejoin:miter;stroke-miterlimit:10;stroke-dasharray:none;stroke-opacity:1"
             id="path247" />
        </g>
        <g
           id="g249"
           transform="translate(8.9101,15.678)">
          <path
             d="M 0,0 V -0.495"
             style="fill:none;stroke:#000000;stroke-width:0.5;stroke-linecap:round;stroke-linejoin:round;stroke-miterlimit:4;stroke-dasharray:none;stroke-opacity:1"
             id="path251" />
        </g>
        <g
           id="g253"
           transform="translate(8.9101,14.1543)">
          <path
             d="m 0,0 v -5.368 c 0,-0.709 0.666,-1.049 0.666,-1.049 0,0 5.246,-2.955 5.42,-3.045 0.173,-0.09 0.333,-0.154 0.708,-0.154 H 7.38 c 0.384,0 0.529,0.053 0.708,0.154 0.179,0.1 5.419,3.045 5.419,3.045 0,0 0.651,0.37 0.666,1.049 0.011,0.506 0.006,4.083 0.002,5.875"
             style="fill:none;stroke:#000000;stroke-width:0.5;stroke-linecap:round;stroke-linejoin:round;stroke-miterlimit:4;stroke-dasharray:1.03, 1.03;stroke-dashoffset:0;stroke-opacity:1"
             id="path255" />
        </g>
        <g
           id="g257"
           transform="translate(23.0846,15.1807)">
          <path
             d="M 0,0 C -0.001,0.311 -0.001,0.497 -0.001,0.497"
             style="fill:none;stroke:#000000;stroke-width:0.5;stroke-linecap:round;stroke-linejoin:round;stroke-miterlimit:4;stroke-dasharray:none;stroke-opacity:1"
             id="path259" />
        </g>
        <g
           id="g261"
           transform="translate(20.4889,22.5272)">
          <path
             d="m 0,0 c -1.12,0 -2.028,0.908 -2.028,2.028 0,1.121 0.908,2.029 2.028,2.029 1.12,0 2.028,-0.908 2.028,-2.029 C 2.027,0.909 1.12,0.001 0,0 m 4.577,0.961 -0.895,0.7 c 0.028,0.244 0.028,0.491 0,0.735 l 0.896,0.7 C 4.745,3.232 4.79,3.469 4.683,3.656 L 3.752,5.265 C 3.645,5.454 3.417,5.536 3.214,5.459 L 2.159,5.035 C 1.961,5.179 1.749,5.302 1.526,5.403 L 1.364,6.523 C 1.335,6.738 1.15,6.898 0.933,6.896 H -0.933 C -1.148,6.898 -1.331,6.74 -1.361,6.526 L -1.524,5.403 C -1.746,5.301 -1.958,5.178 -2.157,5.034 L -3.214,5.46 C -3.415,5.539 -3.643,5.457 -3.748,5.269 L -4.68,3.657 C -4.79,3.47 -4.745,3.23 -4.574,3.095 l 0.895,-0.7 c -0.028,-0.244 -0.028,-0.49 0,-0.735 L -4.575,0.961 C -4.743,0.826 -4.788,0.588 -4.681,0.401 l 0.93,-1.61 c 0.107,-0.188 0.336,-0.27 0.538,-0.193 l 1.055,0.424 c 0.199,-0.144 0.411,-0.267 0.634,-0.368 l 0.163,-1.12 c 0.028,-0.215 0.212,-0.375 0.428,-0.374 h 1.866 c 0.216,-0.001 0.399,0.157 0.43,0.37 l 0.162,1.124 c 0.222,0.102 0.434,0.225 0.633,0.368 l 1.059,-0.425 c 0.2,-0.079 0.428,0.002 0.534,0.19 L 4.685,0.406 C 4.79,0.593 4.744,0.828 4.577,0.961"
             style="fill:#d2d2d2;fill-opacity:1;fill-rule:nonzero;stroke:none"
             id="path263" />
        </g>
        <g
           id="g265"
           transform="translate(20.4889,22.5272)">
          <path
             d="m 0,0 c -1.12,0 -2.028,0.908 -2.028,2.028 0,1.121 0.908,2.029 2.028,2.029 1.12,0 2.028,-0.908 2.028,-2.029 C 2.027,0.909 1.12,0.001 0,0 Z m 4.577,0.961 -0.895,0.7 c 0.028,0.244 0.028,0.491 0,0.735 l 0.896,0.7 C 4.745,3.232 4.79,3.469 4.683,3.656 L 3.752,5.265 C 3.645,5.454 3.417,5.536 3.214,5.459 L 2.159,5.035 C 1.961,5.179 1.749,5.302 1.526,5.403 L 1.364,6.523 C 1.335,6.738 1.15,6.898 0.933,6.896 H -0.933 C -1.148,6.898 -1.331,6.74 -1.361,6.526 L -1.524,5.403 C -1.746,5.301 -1.958,5.178 -2.157,5.034 L -3.214,5.46 C -3.415,5.539 -3.643,5.457 -3.748,5.269 L -4.68,3.657 C -4.79,3.47 -4.745,3.23 -4.574,3.095 l 0.895,-0.7 c -0.028,-0.244 -0.028,-0.49 0,-0.735 L -4.575,0.961 C -4.743,0.826 -4.788,0.588 -4.681,0.401 l 0.93,-1.61 c 0.107,-0.188 0.336,-0.27 0.538,-0.193 l 1.055,0.424 c 0.199,-0.144 0.411,-0.267 0.634,-0.368 l 0.163,-1.12 c 0.028,-0.215 0.212,-0.375 0.428,-0.374 h 1.866 c 0.216,-0.001 0.399,0.157 0.43,0.37 l 0.162,1.124 c 0.222,0.102 0.434,0.225 0.633,0.368 l 1.059,-0.425 c 0.2,-0.079 0.428,0.002 0.534,0.19 L 4.685,0.406 C 4.79,0.593 4.744,0.828 4.577,0.961 Z"
             style="fill:none;stroke:#000000;stroke-width:0.25;stroke-linecap:round;stroke-linejoin:round;stroke-miterlimit:10;stroke-dasharray:none;stroke-opacity:1"
             id="path267" />
        </g>
      </g>
    </g>
  </g>
  <g
     id="layer4"
     style="display:none"
     transform="matrix(0.98947512,0,0,0.98947512,0.04455532,0.04455532)">
    <g
       id="g269"
       transform="matrix(0.35277777,0,0,-0.35277777,-1.4110049,9.8776365)">
      <g
         id="g271"
         clip-path="url(#clipPath275)">
        <g
           id="g277"
           transform="translate(15.6063,5.5026)">
          <path
             d="m 0,0 c -2.493,0 -4.771,0.92 -6.485,2.633 -2.106,2.107 -2.818,4.478 -3.044,6.095 -0.113,0.806 0.449,1.55 1.254,1.663 0.806,0.116 1.55,-0.449 1.664,-1.255 0.238,-1.704 0.981,-3.191 2.21,-4.419 1.283,-1.284 3.058,-1.904 5.004,-1.746 1.855,0.151 3.655,0.974 4.938,2.258 1.182,1.182 1.854,2.868 1.843,4.626 -0.011,1.957 -0.843,3.841 -2.342,5.304 -2.354,2.297 -5.588,2.244 -8.1,0.882 h 1.541 c 0.814,0 1.473,-0.659 1.473,-1.473 0,-0.814 -0.659,-1.473 -1.473,-1.473 h -4.952 c -0.814,0 -1.473,0.659 -1.473,1.473 v 4.953 c 0,0.814 0.659,1.473 1.473,1.473 0.813,0 1.472,-0.659 1.472,-1.473 V 18.319 C -1.398,20.536 3.524,20.756 7.099,17.267 9.166,15.25 10.314,12.624 10.33,9.873 10.346,7.333 9.36,4.881 7.624,3.145 5.855,1.376 3.383,0.242 0.843,0.035 0.56,0.012 0.278,0 0,0"
             style="fill:#d2d2d2;fill-opacity:1;fill-rule:nonzero;stroke:none"
             id="path279" />
        </g>
        <g
           id="g281"
           transform="translate(15.6063,5.5026)">
          <path
             d="m 0,0 c -2.493,0 -4.771,0.92 -6.485,2.633 -2.106,2.107 -2.818,4.478 -3.044,6.095 -0.113,0.806 0.449,1.55 1.254,1.663 0.806,0.116 1.55,-0.449 1.664,-1.255 0.238,-1.704 0.981,-3.191 2.21,-4.419 1.283,-1.284 3.058,-1.904 5.004,-1.746 1.855,0.151 3.655,0.974 4.938,2.258 1.182,1.182 1.854,2.868 1.843,4.626 -0.011,1.957 -0.843,3.841 -2.342,5.304 -2.354,2.297 -5.588,2.244 -8.1,0.882 h 1.541 c 0.814,0 1.473,-0.659 1.473,-1.473 0,-0.814 -0.659,-1.473 -1.473,-1.473 h -4.952 c -0.814,0 -1.473,0.659 -1.473,1.473 v 4.953 c 0,0.814 0.659,1.473 1.473,1.473 0.813,0 1.472,-0.659 1.472,-1.473 V 18.319 C -1.398,20.536 3.524,20.756 7.099,17.267 9.166,15.25 10.314,12.624 10.33,9.873 10.346,7.333 9.36,4.881 7.624,3.145 5.855,1.376 3.383,0.242 0.843,0.035 0.56,0.012 0.278,0 0,0 Z"
             style="fill:none;stroke:#000000;stroke-width:0.25;stroke-linecap:butt;stroke-linejoin:miter;stroke-miterlimit:10;stroke-dasharray:none;stroke-opacity:1"
             id="path283" />
        </g>
      </g>
    </g>
  </g>
  <g
     id="layer3"
     style="display:inline"
     transform="matrix(0.98947236,0,0,0.98947236,0.04456703,0.04456703)">
    <g
       id="g285"
       transform="matrix(0.35277777,0,0,-0.35277777,-1.5115564,9.8777054)">
      <g
         id="g287"
         clip-path="url(#clipPath291)">
        <g
           id="g293"
           transform="translate(16.2831,11.6258)">
          <path
             d="m 0,0 c -2.416,0 -4.374,1.958 -4.374,4.374 0,2.415 1.958,4.373 4.374,4.373 2.416,0 4.374,-1.958 4.374,-4.373 C 4.371,1.959 2.414,0.003 0,0 m 9.869,2.073 -1.93,1.509 c 0.06,0.527 0.06,1.058 0,1.585 l 1.932,1.51 c 0.362,0.291 0.458,0.803 0.228,1.206 l -2.008,3.47 C 7.86,11.759 7.368,11.937 6.931,11.771 L 4.656,10.856 C 4.229,11.166 3.771,11.432 3.29,11.65 L 2.941,14.066 C 2.878,14.53 2.48,14.874 2.012,14.871 h -4.024 c -0.464,0.002 -0.859,-0.339 -0.924,-0.798 L -3.285,11.65 c -0.48,-0.22 -0.937,-0.486 -1.365,-0.794 l -2.281,0.916 c -0.432,0.171 -0.924,-0.004 -1.152,-0.41 l -2.009,-3.476 c -0.236,-0.404 -0.139,-0.921 0.228,-1.212 l 1.93,-1.509 c -0.06,-0.526 -0.06,-1.058 0,-1.585 L -9.865,2.071 c -0.363,-0.291 -0.46,-0.802 -0.23,-1.206 l 2.007,-3.471 c 0.231,-0.406 0.724,-0.584 1.161,-0.418 l 2.274,0.915 c 0.428,-0.31 0.886,-0.576 1.367,-0.794 l 0.35,-2.415 c 0.062,-0.462 0.457,-0.807 0.924,-0.805 h 4.024 c 0.465,-0.004 0.861,0.337 0.926,0.798 l 0.35,2.423 c 0.48,0.219 0.937,0.485 1.365,0.794 l 2.283,-0.918 c 0.432,-0.17 0.924,0.005 1.152,0.41 l 2.015,3.491 c 0.226,0.403 0.127,0.91 -0.234,1.198"
             style="fill:#d2d2d2;fill-opacity:1;fill-rule:nonzero;stroke:none"
             id="path295" />
        </g>
        <g
           id="g297"
           transform="translate(16.2831,11.6258)">
          <path
             d="m 0,0 c -2.416,0 -4.374,1.958 -4.374,4.374 0,2.415 1.958,4.373 4.374,4.373 2.416,0 4.374,-1.958 4.374,-4.373 C 4.371,1.959 2.414,0.003 0,0 Z m 9.869,2.073 -1.93,1.509 c 0.06,0.527 0.06,1.058 0,1.585 l 1.932,1.51 c 0.362,0.291 0.458,0.803 0.228,1.206 l -2.008,3.47 C 7.86,11.759 7.368,11.937 6.931,11.771 L 4.656,10.856 C 4.229,11.166 3.771,11.432 3.29,11.65 L 2.941,14.066 C 2.878,14.53 2.48,14.874 2.012,14.871 h -4.024 c -0.464,0.002 -0.859,-0.339 -0.924,-0.798 L -3.285,11.65 c -0.48,-0.22 -0.937,-0.486 -1.365,-0.794 l -2.281,0.916 c -0.432,0.171 -0.924,-0.004 -1.152,-0.41 l -2.009,-3.476 c -0.236,-0.404 -0.139,-0.921 0.228,-1.212 l 1.93,-1.509 c -0.06,-0.526 -0.06,-1.058 0,-1.585 L -9.865,2.071 c -0.363,-0.291 -0.46,-0.802 -0.23,-1.206 l 2.007,-3.471 c 0.231,-0.406 0.724,-0.584 1.161,-0.418 l 2.274,0.915 c 0.428,-0.31 0.886,-0.576 1.367,-0.794 l 0.35,-2.415 c 0.062,-0.462 0.457,-0.807 0.924,-0.805 h 4.024 c 0.465,-0.004 0.861,0.337 0.926,0.798 l 0.35,2.423 c 0.48,0.219 0.937,0.485 1.365,0.794 l 2.283,-0.918 c 0.432,-0.17 0.924,0.005 1.152,0.41 l 2.015,3.491 c 0.226,0.403 0.127,0.91 -0.234,1.198 z"
             style="fill:none;stroke:#000000;stroke-width:0.25;stroke-linecap:round;stroke-linejoin:round;stroke-miterlimit:10;stroke-dasharray:none;stroke-opacity:1"
             id="path299" />
        </g>
      </g>
    </g>
  </g>
  <g
     id="layer2"
     style="display:none"
     transform="matrix(0.98033062,0,0,0.98033062,0.08326703,0.08326703)">
    <g
       style="display:inline"
       id="g301"
       transform="matrix(0.35277777,0,0,-0.35277777,-1.411111,9.7013888)">
      <g
         id="g303"
         clip-path="url(#clipPath307)">
        <g
           id="g309"
           transform="translate(16,24.0835)">
          <path
             d="m 0,0 c -4.733,0 -8.583,-3.851 -8.583,-8.583 0,-4.733 3.85,-8.584 8.583,-8.584 4.732,0 8.583,3.851 8.583,8.584 C 8.583,-3.851 4.732,0 0,0 m 0,-19.167 c -5.836,0 -10.583,4.748 -10.583,10.584 C -10.583,-2.748 -5.836,2 0,2 5.836,2 10.583,-2.748 10.583,-8.583 10.583,-14.419 5.836,-19.167 0,-19.167"
             style="fill:#d2d2d2;fill-opacity:1;fill-rule:nonzero;stroke:none"
             id="path311" />
        </g>
        <g
           id="g313"
           transform="translate(16,24.0835)"
           style="display:inline">
          <path
             d="m 0,0 c -4.733,0 -8.583,-3.851 -8.583,-8.583 0,-4.733 3.85,-8.584 8.583,-8.584 4.732,0 8.583,3.851 8.583,8.584 C 8.583,-3.851 4.732,0 0,0 Z m 0,-19.167 c -5.836,0 -10.583,4.748 -10.583,10.584 C -10.583,-2.748 -5.836,2 0,2 5.836,2 10.583,-2.748 10.583,-8.583 10.583,-14.419 5.836,-19.167 0,-19.167 Z"
             style="fill:none;stroke:#000000;stroke-width:0.25;stroke-linecap:butt;stroke-linejoin:miter;stroke-miterlimit:10;stroke-dasharray:none;stroke-opacity:1"
             id="path315" />
        </g>
        <g
           id="g317"
           transform="translate(16,8.4795)">
          <path
             d="m 0,0 c -0.552,0 -1,0.447 -1,1 v 8.437 c 0,0.552 0.448,1 1,1 0.552,0 1,-0.448 1,-1 V 1 C 1,0.447 0.552,0 0,0"
             style="fill:#d2d2d2;fill-opacity:1;fill-rule:nonzero;stroke:none"
             id="path319" />
        </g>
        <g
           id="g321"
           transform="translate(16,8.4795)"
           style="display:inline">
          <path
             d="m 0,0 c -0.552,0 -1,0.447 -1,1 v 8.437 c 0,0.552 0.448,1 1,1 0.552,0 1,-0.448 1,-1 V 1 C 1,0.447 0.552,0 0,0 Z"
             style="fill:none;stroke:#000000;stroke-width:0.25;stroke-linecap:butt;stroke-linejoin:miter;stroke-miterlimit:10;stroke-dasharray:none;stroke-opacity:1"
             id="path323" />
        </g>
        <g
           id="g325"
           transform="translate(14.9375,21.2445)"
           style="display:inline">
          <path
             d="M 0,0 C 0,0.587 0.476,1.062 1.062,1.062 1.649,1.062 2.125,0.587 2.125,0 2.125,-0.587 1.649,-1.062 1.062,-1.062 0.476,-1.062 0,-0.587 0,0"
             style="fill:#d2d2d2;fill-opacity:1;fill-rule:nonzero;stroke:none"
             id="path327" />
        </g>
        <g
           id="g329"
           transform="translate(14.9375,21.2445)">
          <path
             d="M 0,0 C 0,0.587 0.476,1.062 1.062,1.062 1.649,1.062 2.125,0.587 2.125,0 2.125,-0.587 1.649,-1.062 1.062,-1.062 0.476,-1.062 0,-0.587 0,0 Z"
             style="fill:none;stroke:#000000;stroke-width:0.25;stroke-linecap:butt;stroke-linejoin:miter;stroke-miterlimit:10;stroke-dasharray:none;stroke-opacity:1"
             id="path331" />
        </g>
      </g>
    </g>
  </g>
</svg>
