<?xml version="1.0" encoding="UTF-8" standalone="no"?>
<svg
   xmlns:dc="http://purl.org/dc/elements/1.1/"
   xmlns:cc="http://creativecommons.org/ns#"
   xmlns:rdf="http://www.w3.org/1999/02/22-rdf-syntax-ns#"
   xmlns:svg="http://www.w3.org/2000/svg"
   xmlns="http://www.w3.org/2000/svg"
   viewBox="0 0 32 32"
   height="32"
   width="32"
   xml:space="preserve"
   id="svg2"
   version="1.1"><metadata
     id="metadata8"><rdf:RDF><cc:Work
         rdf:about=""><dc:format>image/svg+xml</dc:format><dc:type
           rdf:resource="http://purl.org/dc/dcmitype/StillImage" /><dc:title></dc:title></cc:Work></rdf:RDF></metadata><defs
     id="defs6"><clipPath
       id="clipPath18"
       clipPathUnits="userSpaceOnUse"><path
         id="path16"
         d="M 0,32 H 32 V 0 H 0 Z" /></clipPath></defs><g
     transform="matrix(0.94441446,0,0,-0.94441446,0.8894537,31.116865)"
     id="layer2"><g
       style="display:inline"
       transform="translate(16,7.7871)"
       id="g32"><path
         id="path34"
         style="fill:none;stroke:#000000;stroke-width:0.25;stroke-linecap:butt;stroke-linejoin:miter;stroke-miterlimit:10;stroke-dasharray:none;stroke-opacity:1"
         d="m 0,0 c -0.759,0 -1.375,0.615 -1.375,1.375 v 9.817 c 0,0.76 0.616,1.375 1.375,1.375 0.759,0 1.375,-0.615 1.375,-1.375 V 1.375 C 1.375,0.615 0.759,0 0,0 Z" /></g><g
       style="display:inline"
       transform="translate(16,7.7871)"
       id="g28"><path
         id="path30"
         style="fill:#d2d2d2;fill-opacity:1;fill-rule:nonzero;stroke:none"
         d="m 0,0 c -0.759,0 -1.375,0.615 -1.375,1.375 v 9.817 c 0,0.76 0.616,1.375 1.375,1.375 0.759,0 1.375,-0.615 1.375,-1.375 V 1.375 C 1.375,0.615 0.759,0 0,0" /></g><g
       style="display:inline"
       transform="translate(15.4263,1.3076)"
       id="g24"><path
         id="path26"
         style="fill:none;stroke:#000000;stroke-width:0.25;stroke-linecap:round;stroke-linejoin:round;stroke-miterlimit:10;stroke-dasharray:none;stroke-opacity:1"
         d="m 0,0 c -3.25,0 -6.495,1.11 -9.05,3.665 -2.952,2.952 -3.95,6.274 -4.267,8.542 -0.142,1.018 0.567,1.958 1.584,2.1 1.017,0.141 1.958,-0.567 2.1,-1.584 0.347,-2.48 1.428,-4.642 3.214,-6.427 1.877,-1.878 4.475,-2.79 7.311,-2.553 2.694,0.22 5.311,1.416 7.177,3.282 1.727,1.728 2.709,4.19 2.693,6.754 -0.017,2.851 -1.227,5.592 -3.406,7.719 -3.677,3.587 -8.818,3.252 -12.561,0.85 h 3.059 c 1.028,0 1.86,-0.833 1.86,-1.86 0,-1.028 -0.832,-1.86 -1.86,-1.86 h -7.05 c -1.027,0 -1.86,0.832 -1.86,1.86 v 7.05 c 0,1.027 0.833,1.86 1.86,1.86 1.028,0 1.86,-0.833 1.86,-1.86 V 25.397 C -2.269,28.711 4.832,29.16 9.954,24.16 12.85,21.333 14.458,17.655 14.482,13.802 14.504,10.25 13.125,6.821 10.7,4.395 7.976,1.671 3.985,0 0,0 Z" /></g><g
       style="display:inline"
       transform="translate(15.4263,1.3076)"
       id="g20"><path
         id="path22"
         style="fill:#4fb2ff;fill-opacity:1;fill-rule:nonzero;stroke:none"
         d="m 0,0 c -3.25,0 -6.495,1.11 -9.05,3.665 -2.952,2.952 -3.95,6.274 -4.267,8.542 -0.142,1.018 0.567,1.958 1.584,2.1 1.017,0.141 1.958,-0.567 2.1,-1.584 0.347,-2.48 1.428,-4.642 3.214,-6.427 1.877,-1.878 4.475,-2.79 7.311,-2.553 2.694,0.22 5.311,1.416 7.177,3.282 1.727,1.728 2.709,4.19 2.693,6.754 -0.017,2.851 -1.227,5.592 -3.406,7.719 -3.677,3.587 -8.818,3.252 -12.561,0.85 h 3.059 c 1.028,0 1.86,-0.833 1.86,-1.86 0,-1.028 -0.832,-1.86 -1.86,-1.86 h -7.05 c -1.027,0 -1.86,0.832 -1.86,1.86 v 7.05 c 0,1.027 0.833,1.86 1.86,1.86 1.028,0 1.86,-0.833 1.86,-1.86 V 25.397 C -2.269,28.711 4.832,29.16 9.954,24.16 12.85,21.333 14.458,17.655 14.482,13.802 14.504,10.25 13.125,6.821 10.7,4.395 7.976,1.671 3.985,0 0,0" /></g></g></svg>
